<svg xmlns="http://www.w3.org/2000/svg" version="1.1" viewBox="-5.0 -10.0 110.0 135.0">
    <path fill="#000"
        d="m49.227 52.07-11.234-12.562c-2.6289-2.9531-7.1445-3.2031-10.098-0.57422s-3.2031 7.1445-0.57422 10.098l17.102 19.117c2.6289 2.9531 7.1445 3.2031 10.098 0.57422l36.324-56.465s2.125-3.457-0.53906-5.2031c0 0-2.2148-1.3516-4.4805 1.2617zm38.176-27.09-4.8242 7.543c2.793 5.1992 4.3945 11.141 4.3945 17.477 0 10.223-4.1406 19.441-10.836 26.137-6.6953 6.6953-15.93 10.836-26.137 10.836-10.223 0-19.441-4.1406-26.137-10.836-6.7148-6.6953-10.836-15.914-10.836-26.137s4.1406-19.441 10.836-26.137c6.6953-6.6953 15.914-10.836 26.137-10.836 7.8672 0 15.121 2.4492 21.113 6.625l5.168-6.1914c-7.3984-5.3125-16.488-8.4609-26.281-8.4609-12.422 0-23.688 5.0391-31.824 13.176s-13.176 19.402-13.176 31.824 5.0391 23.688 13.176 31.824 19.402 13.176 31.824 13.176 23.688-5.0391 31.824-13.176 13.176-19.402 13.176-31.824c0-9.2539-2.7891-17.855-7.5977-25.02z" />
</svg>